# xmcd
#
# Track frame offsets:
#	150
#	18980
#	36655
#	56013
#	76978
#	102199
#	115557
#	133721
#	151885
#	164834
#	175102
#	191430
#	201601
#	222227
#
# Disc length: 3180 seconds
#
# Revision: 1
# Processed by: cddbd v1.4PL0 Copyright (c) Steve Scherf et al.
# Submitted via: audiograbber 1.80.04
#
DISCID=c40c6a0e
DTITLE=Gerd Spielmann - Lust auf Leben
DYEAR=1998
DGENRE=Country
TTITLE0=Mit dir tanz ich um die Welt
TTITLE1=Oh, Sorry Susanne
TTITLE2=Sag mal (Lave Ballade)
TTITLE3=Kälter als Eis
TTITLE4=Heute Nacht
TTITLE5=Es tut weh
TTITLE6=Das andere Gesicht
TTITLE7="Powerohren"
TTITLE8=Paquita
TTITLE9=Maria und Clementine
TTITLE10=Tausend Träume
TTITLE11=Cadillac (Twist 2000)
TTITLE12=Autobahn
TTITLE13=Ich denk an Dich
EXTD=
EXTT0=
EXTT1=
EXTT2=
EXTT3=
EXTT4=
EXTT5=
EXTT6=
EXTT7=
EXTT8=
EXTT9=
EXTT10=
EXTT11=
EXTT12=
EXTT13=
PLAYORDER=
